<?xml version="1.0" standalone="no"?>
 <!DOCTYPE svg PUBLIC "-//W3C//DTD SVG 1.1//EN" 
 "http://www.w3.org/Graphics/SVG/1.1/DTD/svg11.dtd"> 
<svg xmlns="http://www.w3.org/2000/svg" version="1.1" 
    width="29.7561cm" height="11.0871cm" viewBox="0 0 117150 43650 ">
<title>SVG Picture created as switchplate-brd.svg date 2020/05/30 09:41:42 </title>
  <desc>Picture generated by PCBNEW </desc>
<g style="fill:#000000; fill-opacity:1;stroke:#000000; stroke-opacity:1;
stroke-linecap:round; stroke-linejoin:round; "
 transform="translate(0 0) scale(1 1)">
</g>
<g style="fill:#000000; fill-opacity:0.0; 
stroke:#000000; stroke-width:-0.000393701; stroke-opacity:1; 
stroke-linecap:round; stroke-linejoin:round;">
<g >
</g>
<g style="fill:#000000; fill-opacity:1.0; 
stroke:#000000; stroke-width:0; stroke-opacity:1; 
stroke-linecap:round; stroke-linejoin:round;">
<circle cx="104950" cy="13382.9" r="1240.16" /> 
</g>
<g style="fill:#000000; fill-opacity:1.0; 
stroke:#000000; stroke-width:39.3701; stroke-opacity:1; 
stroke-linecap:round; stroke-linejoin:round;">
</g>
<g >
</g>
<g style="fill:#000000; fill-opacity:1.0; 
stroke:#000000; stroke-width:39.3701; stroke-opacity:1; 
stroke-linecap:round; stroke-linejoin:round;">
</g>
<g style="fill:#000000; fill-opacity:1.0; 
stroke:#000000; stroke-width:0; stroke-opacity:1; 
stroke-linecap:round; stroke-linejoin:round;">
<circle cx="12245.3" cy="13378.9" r="1240.16" /> 
</g>
<g style="fill:#000000; fill-opacity:1.0; 
stroke:#000000; stroke-width:39.3701; stroke-opacity:1; 
stroke-linecap:round; stroke-linejoin:round;">
</g>
<g >
</g>
<g >
</g>
<g >
</g>
</g>
<g style="fill:#FFFFFF; fill-opacity:1.0; 
stroke:#FFFFFF; stroke-width:39.3701; stroke-opacity:1; 
stroke-linecap:round; stroke-linejoin:round;">
</g>
<g style="fill:#FFFFFF; fill-opacity:1.0; 
stroke:#FFFFFF; stroke-width:0; stroke-opacity:1; 
stroke-linecap:round; stroke-linejoin:round;">
<circle cx="104950" cy="13382.9" r="1043.31" /> 
</g>
<g style="fill:#FFFFFF; fill-opacity:1.0; 
stroke:#FFFFFF; stroke-width:39.3701; stroke-opacity:1; 
stroke-linecap:round; stroke-linejoin:round;">
</g>
<g style="fill:#FFFFFF; fill-opacity:1.0; 
stroke:#FFFFFF; stroke-width:0; stroke-opacity:1; 
stroke-linecap:round; stroke-linejoin:round;">
<circle cx="12245.3" cy="13378.9" r="1043.31" /> 
</g>
<g style="fill:#FFFFFF; fill-opacity:1.0; 
stroke:#FFFFFF; stroke-width:39.3701; stroke-opacity:1; 
stroke-linecap:round; stroke-linejoin:round;">
</g>
<g style="fill:#000000; fill-opacity:1.0; 
stroke:#000000; stroke-width:39.3701; stroke-opacity:1; 
stroke-linecap:round; stroke-linejoin:round;">
<g >
</g>
<g style="fill:#000000; fill-opacity:1.0; 
stroke:#000000; stroke-width:0; stroke-opacity:1; 
stroke-linecap:round; stroke-linejoin:round;">
<circle cx="104950" cy="13382.9" r="1240.16" /> 
</g>
<g style="fill:#000000; fill-opacity:1.0; 
stroke:#000000; stroke-width:39.3701; stroke-opacity:1; 
stroke-linecap:round; stroke-linejoin:round;">
</g>
<g >
</g>
<g style="fill:#000000; fill-opacity:1.0; 
stroke:#000000; stroke-width:39.3701; stroke-opacity:1; 
stroke-linecap:round; stroke-linejoin:round;">
</g>
<g style="fill:#000000; fill-opacity:1.0; 
stroke:#000000; stroke-width:0; stroke-opacity:1; 
stroke-linecap:round; stroke-linejoin:round;">
<circle cx="12245.3" cy="13378.9" r="1240.16" /> 
</g>
<g style="fill:#000000; fill-opacity:1.0; 
stroke:#000000; stroke-width:39.3701; stroke-opacity:1; 
stroke-linecap:round; stroke-linejoin:round;">
</g>
<g >
</g>
<g >
</g>
<g >
</g>
</g>
<g style="fill:#FFFFFF; fill-opacity:1.0; 
stroke:#FFFFFF; stroke-width:39.3701; stroke-opacity:1; 
stroke-linecap:round; stroke-linejoin:round;">
</g>
<g style="fill:#FFFFFF; fill-opacity:1.0; 
stroke:#FFFFFF; stroke-width:0; stroke-opacity:1; 
stroke-linecap:round; stroke-linejoin:round;">
<circle cx="104950" cy="13382.9" r="1043.31" /> 
</g>
<g style="fill:#FFFFFF; fill-opacity:1.0; 
stroke:#FFFFFF; stroke-width:39.3701; stroke-opacity:1; 
stroke-linecap:round; stroke-linejoin:round;">
</g>
<g style="fill:#FFFFFF; fill-opacity:1.0; 
stroke:#FFFFFF; stroke-width:0; stroke-opacity:1; 
stroke-linecap:round; stroke-linejoin:round;">
<circle cx="12245.3" cy="13378.9" r="1043.31" /> 
</g>
<g style="fill:#FFFFFF; fill-opacity:1.0; 
stroke:#FFFFFF; stroke-width:39.3701; stroke-opacity:1; 
stroke-linecap:round; stroke-linejoin:round;">
</g>
<g style="fill:#000000; fill-opacity:1.0; 
stroke:#000000; stroke-width:39.3701; stroke-opacity:1; 
stroke-linecap:round; stroke-linejoin:round;">
</g>
<g style="fill:#000000; fill-opacity:1.0; 
stroke:#000000; stroke-width:78.7402; stroke-opacity:1; 
stroke-linecap:round; stroke-linejoin:round;">
</g>
<g style="fill:#000000; fill-opacity:0.0; 
stroke:#000000; stroke-width:78.7402; stroke-opacity:1; 
stroke-linecap:round; stroke-linejoin:round;">
<path d="M56296 30284
L56296 24772
" />
<path d="M56296 32272
L61808 32272
" />
<path d="M61808 32272
L61808 37784
" />
<path d="M61808 30284
L56296 30284
" />
<path d="M56296 37784
L56296 32272
" />
<path d="M61808 22784
L56296 22784
" />
<path d="M61808 24772
L61808 30284
" />
<path d="M56296 24772
L61808 24772
" />
<path d="M61808 37784
L56296 37784
" />
<path d="M56296 17272
L61808 17272
" />
<path d="M56296 22784
L56296 17272
" />
<path d="M61808 17272
L61808 22784
" />
</g>
<g style="fill:#000000; fill-opacity:0.0; 
stroke:#000000; stroke-width:59.0551; stroke-opacity:1; 
stroke-linecap:round; stroke-linejoin:round;">
<path d="M63591 2402
L114831 2398
" />
<path d="M54489 14536
L63591 14536
" />
<path d="M63591 2402
L63591 14536
" />
<path d="M54485 2414
L54489 14536
" />
<path d="M114835 39788
L2489 39788
" />
<path d="M71231 38112
L84128 36499
" />
<path d="M84128 36499
L83458 31029
" />
<path d="M83458 31029
L70559 32646
" />
<path d="M70559 32646
L71231 38112
" />
<path d="M113347 23741
L113107 23808
" />
<path d="M113107 23808
L112788 23930
" />
<path d="M113363 25686
L113024 25630
" />
<path d="M113024 25630
L112749 25457
" />
<path d="M114828 25701
L113363 25686
" />
<path d="M114835 23729
L113347 23741
" />
<path d="M4064 23800
L4383 23922
" />
<path d="M3824 23733
L4064 23800
" />
<path d="M2406 23729
L3824 23733
" />
<path d="M4127 25674
L4544 25410
" />
<path d="M3788 25729
L4127 25674
" />
<path d="M2481 25733
L3788 25729
" />
<path d="M2394 2398
L2406 23729
" />
<path d="M114831 2398
L114835 23729
" />
<path d="M2489 39788
L2481 25733
" />
<path d="M99179 19639
L104647 18963
" />
<path d="M105808 28344
L100338 29016
" />
<path d="M74198 17127
L68728 17799
" />
<path d="M106830 20634
L107502 26104
" />
<path d="M77746 29746
L83214 29070
" />
<path d="M68498 15789
L73966 15113
" />
<path d="M103076 6017
L97606 6689
" />
<path d="M105011 5736
L105683 11206
" />
<path d="M112300 19962
L106830 20634
" />
<path d="M90005 22710
L84535 23382
" />
<path d="M98336 29218
L92866 29890
" />
<path d="M92624 27931
L98092 27255
" />
<path d="M96505 14371
L91035 15043
" />
<path d="M97422 21789
L91952 22461
" />
<path d="M110481 5064
L105011 5736
" />
<path d="M88186 7812
L82716 8484
" />
<path d="M84290 21435
L89758 20759
" />
<path d="M83618 15965
L84290 21435
" />
<path d="M93538 35360
L99006 34684
" />
<path d="M106585 18687
L112053 18011
" />
<path d="M98278 12159
L103746 11483
" />
<path d="M113884 32857
L113214 27391
" />
<path d="M97606 6689
L98278 12159
" />
<path d="M89088 15293
L83618 15965
" />
<path d="M90918 30139
L85448 30811
" />
<path d="M82544 23604
L77074 24276
" />
<path d="M85448 30811
L86120 36281
" />
<path d="M90805 13033
L96273 12357
" />
<path d="M100338 29016
L101010 34486
" />
<path d="M84535 23382
L85207 28852
" />
<path d="M76157 16858
L76829 22328
" />
<path d="M83214 29070
L82544 23604
" />
<path d="M103977 13497
L98507 14169
" />
<path d="M80725 8706
L75255 9378
" />
<path d="M96273 12357
L95603 6891
" />
<path d="M75115 24545
L69645 25217
" />
<path d="M82297 21652
L81627 16186
" />
<path d="M90133 7563
L90805 13033
" />
<path d="M112053 18011
L111383 12545
" />
<path d="M75255 9378
L75927 14848
" />
<path d="M91588 35605
L90918 30139
" />
<path d="M113214 27391
L107744 28063
" />
<path d="M91952 22461
L92624 27931
" />
<path d="M69645 25217
L70317 30687
" />
<path d="M89758 20759
L89088 15293
" />
<path d="M98507 14169
L99179 19639
" />
<path d="M111151 10530
L110481 5064
" />
<path d="M73966 15113
L73296 9647
" />
<path d="M67826 10319
L68498 15789
" />
<path d="M86120 36281
L91588 35605
" />
<path d="M76829 22328
L82297 21652
" />
<path d="M100097 27057
L105565 26381
" />
<path d="M107744 28063
L108416 33533
" />
<path d="M74868 22593
L74198 17127
" />
<path d="M70317 30687
L75785 30011
" />
<path d="M105913 13217
L106585 18687
" />
<path d="M98092 27255
L97422 21789
" />
<path d="M101010 34486
L106478 33810
" />
<path d="M81627 16186
L76157 16858
" />
<path d="M105565 26381
L104895 20915
" />
<path d="M112788 23930
L112300 19962
" />
<path d="M111383 12545
L105913 13217
" />
<path d="M91707 20513
L97175 19837
" />
<path d="M105683 11206
L111151 10530
" />
<path d="M68728 17799
L69400 23269
" />
<path d="M99006 34684
L98336 29218
" />
<path d="M107502 26104
L112749 25457
" />
<path d="M92866 29890
L93538 35360
" />
<path d="M75785 30011
L75115 24545
" />
<path d="M103746 11483
L103076 6017
" />
<path d="M83388 13954
L88856 13278
" />
<path d="M77074 24276
L77746 29746
" />
<path d="M75927 14848
L81395 14172
" />
<path d="M104895 20915
L99425 21587
" />
<path d="M82716 8484
L83388 13954
" />
<path d="M73296 9647
L67826 10319
" />
<path d="M88856 13278
L88186 7812
" />
<path d="M85207 28852
L90675 28176
" />
<path d="M69400 23269
L74868 22593
" />
<path d="M104647 18963
L103977 13497
" />
<path d="M108416 33533
L113884 32857
" />
<path d="M91035 15043
L91707 20513
" />
<path d="M90675 28176
L90005 22710
" />
<path d="M106478 33810
L105808 28344
" />
<path d="M99425 21587
L100097 27057
" />
<path d="M81395 14172
L80725 8706
" />
<path d="M97175 19837
L96505 14371
" />
<path d="M95603 6891
L90133 7563
" />
<path d="M45969 38106
L40499 37434
" />
<path d="M31762 30813
L31092 36279
" />
<path d="M40499 37434
L41171 31964
" />
<path d="M11416 28322
L16884 28998
" />
<path d="M33766 31011
L39234 31687
" />
<path d="M18876 29216
L24344 29892
" />
<path d="M33094 36481
L33766 31011
" />
<path d="M3986 27381
L9454 28057
" />
<path d="M25622 35607
L26294 30137
" />
<path d="M9454 28057
L8784 33523
" />
<path d="M16884 28998
L16214 34464
" />
<path d="M31092 36279
L25622 35607
" />
<path d="M46639 32640
L45969 38106
" />
<path d="M41171 31964
L46639 32640
" />
<path d="M26294 30137
L31762 30813
" />
<path d="M38564 37153
L33094 36481
" />
<path d="M23674 35358
L18204 34686
" />
<path d="M10744 33792
L11416 28322
" />
<path d="M24344 29892
L23674 35358
" />
<path d="M16214 34464
L10744 33792
" />
<path d="M39234 31687
L38564 37153
" />
<path d="M18204 34686
L18876 29216
" />
<path d="M3314 32851
L3986 27381
" />
<path d="M8784 33523
L3314 32851
" />
<path d="M46871 30626
L41401 29954
" />
<path d="M32663 23333
L31993 28799
" />
<path d="M41401 29954
L42073 24484
" />
<path d="M12317 20842
L17785 21518
" />
<path d="M34668 23531
L40136 24207
" />
<path d="M19778 21736
L25246 22412
" />
<path d="M33996 29001
L34668 23531
" />
<path d="M4888 19901
L10356 20577
" />
<path d="M26523 28127
L27195 22657
" />
<path d="M10356 20577
L9686 26043
" />
<path d="M17785 21518
L17115 26984
" />
<path d="M31993 28799
L26523 28127
" />
<path d="M47541 25160
L46871 30626
" />
<path d="M42073 24484
L47541 25160
" />
<path d="M27195 22657
L32663 23333
" />
<path d="M39466 29673
L33996 29001
" />
<path d="M24576 27878
L19106 27206
" />
<path d="M11645 26312
L12317 20842
" />
<path d="M25246 22412
L24576 27878
" />
<path d="M17115 26984
L11645 26312
" />
<path d="M40136 24207
L39466 29673
" />
<path d="M19106 27206
L19778 21736
" />
<path d="M4383 23922
L4888 19901
" />
<path d="M9686 26043
L4544 25410
" />
<path d="M47788 23208
L42318 22536
" />
<path d="M33580 15916
L32910 21382
" />
<path d="M42318 22536
L42990 17066
" />
<path d="M13234 13425
L18702 14101
" />
<path d="M35585 16114
L41053 16790
" />
<path d="M20695 14318
L26163 14994
" />
<path d="M34913 21584
L35585 16114
" />
<path d="M5805 12484
L11273 13160
" />
<path d="M27440 20710
L28112 15240
" />
<path d="M11273 13160
L10603 18626
" />
<path d="M18702 14101
L18032 19567
" />
<path d="M32910 21382
L27440 20710
" />
<path d="M48458 17742
L47788 23208
" />
<path d="M42990 17066
L48458 17742
" />
<path d="M28112 15240
L33580 15916
" />
<path d="M40383 22256
L34913 21584
" />
<path d="M25493 20460
L20023 19788
" />
<path d="M12562 18895
L13234 13425
" />
<path d="M26163 14994
L25493 20460
" />
<path d="M18032 19567
L12562 18895
" />
<path d="M41053 16790
L40383 22256
" />
<path d="M20023 19788
L20695 14318
" />
<path d="M5133 17954
L5805 12484
" />
<path d="M10603 18626
L5133 17954
" />
<path d="M49372 10313
L48702 15779
" />
<path d="M43904 9637
L49372 10313
" />
<path d="M43232 15107
L43904 9637
" />
<path d="M48702 15779
L43232 15107
" />
<path d="M41966 9361
L41296 14827
" />
<path d="M36498 8685
L41966 9361
" />
<path d="M35826 14155
L36498 8685
" />
<path d="M41296 14827
L35826 14155
" />
<path d="M34494 8487
L33824 13953
" />
<path d="M29026 7811
L34494 8487
" />
<path d="M28354 13281
L29026 7811
" />
<path d="M33824 13953
L28354 13281
" />
<path d="M27076 7565
L26406 13031
" />
<path d="M21608 6889
L27076 7565
" />
<path d="M20936 12359
L21608 6889
" />
<path d="M26406 13031
L20936 12359
" />
<path d="M19616 6672
L18946 12138
" />
<path d="M14148 5996
L19616 6672
" />
<path d="M13476 11466
L14148 5996
" />
<path d="M18946 12138
L13476 11466
" />
<path d="M12187 5731
L11517 11197
" />
<path d="M6719 5055
L12187 5731
" />
<path d="M6047 10525
L6719 5055
" />
<path d="M11517 11197
L6047 10525
" />
<path d="M114828 25701
L114835 39788
" />
<path d="M2394 2398
L54485 2414
" />
<g >
</g>
<g >
</g>
<g >
</g>
</g> 
</svg>
